<svg xmlns="http://www.w3.org/2000/svg" viewBox="0 0 1253.6 1253.6"><defs><style>.cls-1,.cls-4,.cls-5{fill:none;}.cls-2{fill:#009245;}.cls-2,.cls-4,.cls-5,.cls-6{stroke:#000;stroke-linejoin:round;stroke-width:20px;}.cls-3{fill:#a8dae6;}.cls-5,.cls-6{stroke-linecap:round;}.cls-6{fill:#e52421;}</style></defs><title>Asset 55100</title><g id="Layer_2" data-name="Layer 2"><g id="Layer_1-2" data-name="Layer 1"><g id="mountain"><rect class="cls-1" width="1253.6" height="1253.6"/><path class="cls-2" d="M626.8,321.44q-7.08,12.38-14.15,24.74L391.29,733.06q-144,251.73-288,503.44h1047.1Z"/><polygon class="cls-3" points="478.25 603.62 625.19 345.58 797.92 642.91 712.67 802.19 584.81 623.79 523.12 699.19 478.25 603.62"/><polyline class="cls-4" points="463.67 586.63 522 715.11 580.32 613.17 711.55 828.74 809.97 641.59"/><line class="cls-5" x1="626.8" y1="315.84" x2="626.8" y2="17.1"/><polygon class="cls-6" points="814.29 69.12 627.22 17.1 627.22 121.13 814.29 69.12"/><path class="cls-4" d="M626.8,321.44q-7.08,12.38-14.15,24.74L391.29,733.06q-144,251.73-288,503.44h1047.1Z"/></g></g></g></svg>