<svg xmlns="http://www.w3.org/2000/svg" viewBox="0 0 1253.6 1253.6"><defs><style>.cls-1,.cls-9{fill:none;}.cls-2{stroke:#1d1d1b;}.cls-10,.cls-2,.cls-8,.cls-9{stroke-linecap:round;stroke-width:20px;}.cls-2,.cls-9{stroke-miterlimit:10;}.cls-10,.cls-3{fill:#6ec6d9;}.cls-4{fill:#fbd493;}.cls-5,.cls-8{fill:#e72479;}.cls-6{fill:#f9b03d;}.cls-7{fill:#47ae4c;}.cls-10,.cls-8,.cls-9{stroke:#000;}.cls-10,.cls-8{stroke-linejoin:round;}</style></defs><title>Asset 62100</title><g id="Layer_2" data-name="Layer 2"><g id="Layer_1-2" data-name="Layer 1"><g id="Общение"><rect class="cls-1" width="1253.6" height="1253.6"/><circle class="cls-2" cx="624.14" cy="40.82" r="20.73"/><circle class="cls-2" cx="535.42" cy="47.48" r="20.73"/><circle class="cls-2" cx="450.86" cy="66.82" r="20.73"/><circle class="cls-2" cx="371.43" cy="97.85" r="20.73"/><circle class="cls-2" cx="298.1" cy="139.61" r="20.73"/><circle class="cls-2" cx="231.86" cy="191.13" r="20.73"/><circle class="cls-2" cx="173.66" cy="251.43" r="20.73"/><circle class="cls-2" cx="124.5" cy="319.53" r="20.73"/><circle class="cls-2" cx="85.32" cy="394.47" r="20.73"/><circle class="cls-2" cx="57.12" cy="475.28" r="20.73"/><circle class="cls-2" cx="40.87" cy="560.97" r="20.73"/><circle class="cls-2" cx="37.52" cy="650.38" r="20.73"/><circle class="cls-2" cx="47.44" cy="738.16" r="20.73"/><circle class="cls-2" cx="69.79" cy="821.53" r="20.73"/><circle class="cls-2" cx="103.6" cy="899.52" r="20.73"/><circle class="cls-2" cx="147.89" cy="971.17" r="20.73"/><circle class="cls-2" cx="201.69" cy="1035.49" r="20.73"/><circle class="cls-2" cx="264.03" cy="1091.52" r="20.73"/><circle class="cls-2" cx="333.94" cy="1138.28" r="20.73"/><circle class="cls-2" cx="410.44" cy="1174.8" r="20.73"/><circle class="cls-2" cx="492.56" cy="1200.1" r="20.73"/><circle class="cls-2" cx="579.32" cy="1213.22" r="20.73"/><circle class="cls-2" cx="668.96" cy="1213.22" r="20.73"/><circle class="cls-2" cx="755.73" cy="1200.1" r="20.73"/><circle class="cls-2" cx="837.84" cy="1174.8" r="20.73"/><circle class="cls-2" cx="914.34" cy="1138.28" r="20.73"/><circle class="cls-2" cx="984.25" cy="1091.52" r="20.73"/><circle class="cls-2" cx="1046.59" cy="1035.49" r="20.73"/><circle class="cls-2" cx="1100.39" cy="971.17" r="20.73"/><circle class="cls-2" cx="1144.68" cy="899.52" r="20.73"/><circle class="cls-2" cx="1178.49" cy="821.53" r="20.73"/><circle class="cls-2" cx="1200.84" cy="738.16" r="20.73"/><circle class="cls-2" cx="1210.76" cy="650.38" r="20.73"/><circle class="cls-2" cx="1207.42" cy="560.97" r="20.73"/><circle class="cls-2" cx="1191.16" cy="475.28" r="20.73"/><circle class="cls-2" cx="1162.96" cy="394.47" r="20.73"/><circle class="cls-2" cx="1123.79" cy="319.53" r="20.73"/><circle class="cls-2" cx="1074.62" cy="251.43" r="20.73"/><circle class="cls-2" cx="1016.43" cy="191.13" r="20.73"/><circle class="cls-2" cx="950.18" cy="139.61" r="20.73"/><circle class="cls-2" cx="876.86" cy="97.85" r="20.73"/><circle class="cls-2" cx="797.43" cy="66.82" r="20.73"/><circle class="cls-2" cx="712.86" cy="47.48" r="20.73"/><circle class="cls-2" cx="624.14" cy="40.82" r="20.73"/><path class="cls-3" d="M39.62,1143.84V1081.6c0-82.64,67.23-149.88,149.87-149.88S339.37,999,339.37,1081.6v62.24Z"/><path d="M189.49,941.73A139.86,139.86,0,0,1,329.37,1081.6v52.24H49.62V1081.6A139.86,139.86,0,0,1,189.49,941.73m0-20h0A159.87,159.87,0,0,0,29.62,1081.6v72.24H349.37V1081.6A159.87,159.87,0,0,0,189.49,921.73Z"/><circle class="cls-4" cx="189.49" cy="921.73" r="92.92" transform="translate(-751.11 894.38) rotate(-76.72)"/><path d="M189.49,838.8a82.93,82.93,0,1,1-82.92,82.93,83,83,0,0,1,82.92-82.93m0-20A102.93,102.93,0,1,0,292.42,921.73,102.92,102.92,0,0,0,189.49,818.8Z"/><path class="cls-5" d="M39.62,424.75V362.51c0-82.64,67.23-149.87,149.87-149.87s149.88,67.23,149.88,149.87v62.24Z"/><path d="M189.49,222.64A139.88,139.88,0,0,1,329.37,362.51v52.24H49.62V362.51A139.88,139.88,0,0,1,189.49,222.64m0-20h0A159.87,159.87,0,0,0,29.62,362.51v72.24H349.37V362.51A159.88,159.88,0,0,0,189.49,202.64Z"/><circle class="cls-4" cx="189.49" cy="202.64" r="92.92" transform="translate(-87.79 193.35) rotate(-45)"/><path d="M189.49,119.72a82.92,82.92,0,1,1-82.92,82.92,83,83,0,0,1,82.92-82.92m0-20A102.92,102.92,0,1,0,292.42,202.64,102.92,102.92,0,0,0,189.49,99.72Z"/><path class="cls-6" d="M914.23,424.75V362.51c0-82.64,67.24-149.87,149.88-149.87S1214,279.87,1214,362.51v62.24Z"/><path d="M1064.11,222.64A139.88,139.88,0,0,1,1204,362.51v52.24H924.23V362.51a139.88,139.88,0,0,1,139.88-139.87m0-20h0A159.88,159.88,0,0,0,904.23,362.51v72.24H1224V362.51a159.87,159.87,0,0,0-159.87-159.87Z"/><circle class="cls-4" cx="1064.11" cy="202.64" r="92.92" transform="translate(168.38 811.79) rotate(-45)"/><path d="M1064.11,119.72a82.92,82.92,0,1,1-82.93,82.92,83,83,0,0,1,82.93-82.92m0-20A102.92,102.92,0,1,0,1167,202.64,102.92,102.92,0,0,0,1064.11,99.72Z"/><path class="cls-7" d="M914.23,1143.84V1081.6c0-82.64,67.24-149.88,149.88-149.88S1214,999,1214,1081.6v62.24Z"/><path d="M1064.11,941.73A139.86,139.86,0,0,1,1204,1081.6v52.24H924.23V1081.6a139.86,139.86,0,0,1,139.88-139.87m0-20h0A159.87,159.87,0,0,0,904.23,1081.6v72.24H1224V1081.6a159.87,159.87,0,0,0-159.87-159.87Z"/><circle class="cls-4" cx="1064.11" cy="921.73" r="92.92" transform="translate(-77.44 1745.6) rotate(-76.72)"/><path d="M1064.11,838.8a82.93,82.93,0,1,1-82.93,82.93,83,83,0,0,1,82.93-82.93m0-20A102.93,102.93,0,1,0,1167,921.73,102.93,102.93,0,0,0,1064.11,818.8Z"/><path class="cls-8" d="M714.5,388.87c100,0,181.13,69.55,181.13,155.34,0,42.18-19.6,80.44-51.43,108.43-4.13,20.81,2.87,41.62,19.75,61.53-28-1.53-54.85-11.09-81-26.1a207,207,0,0,1-68.45,11.48c-100,0-181.13-69.55-181.13-155.34S614.46,388.87,714.5,388.87Z"/><path d="M804.62,510.89a11.61,11.61,0,1,0,11.61,11.61,11.61,11.61,0,0,0-11.61-11.61Z"/><path d="M804.62,503.46a19,19,0,1,0,19,19,19,19,0,0,0-19-19Z"/><line class="cls-9" x1="624.14" y1="522.5" x2="739.8" y2="522.5"/><line class="cls-9" x1="804.62" y1="588.62" x2="623.5" y2="588.62"/><path class="cls-10" d="M530.5,541.57c-100,0-181.13,69.54-181.13,155.33,0,42.19,19.6,80.44,51.43,108.43,4.13,20.81-2.87,41.62-19.75,61.53,28-1.53,54.85-11.09,81-26.09a207.22,207.22,0,0,0,68.45,11.47c100,0,181.13-69.55,181.13-155.34S630.54,541.57,530.5,541.57Z"/><path d="M440.38,656.15a19,19,0,1,0,19,19,19,19,0,0,0-19-19Z"/><line class="cls-9" x1="505.84" y1="675.19" x2="621.5" y2="675.19"/><line class="cls-9" x1="440.38" y1="741.31" x2="621.5" y2="741.31"/></g></g></g></svg>