<svg xmlns="http://www.w3.org/2000/svg" viewBox="0 0 1253.6 1253.6"><defs><style>.cls-1,.cls-5{fill:none;}.cls-2{fill:#4e4d4d;}.cls-2,.cls-3,.cls-4,.cls-5{stroke:#000;stroke-miterlimit:10;stroke-width:20px;}.cls-3{fill:#2babe2;}.cls-4{fill:#f3e600;}</style></defs><title>Asset 57100</title><g id="Layer_2" data-name="Layer 2"><g id="Layer_1-2" data-name="Layer 1"><g id="лампочка"><rect class="cls-1" width="1253.6" height="1253.6"/><circle class="cls-2" cx="509.52" cy="1096.87" r="141.59"/><rect class="cls-3" x="303.08" y="1065.38" width="412.87" height="70.4" rx="33.96"/><rect class="cls-3" x="303.08" y="993.64" width="412.87" height="70.4" rx="33.96"/><path class="cls-4" d="M1154.76,376c0-199-161.31-360.28-360.28-360.28V168.28a62.73,62.73,0,1,0,0,107.41V394.52h134a62.73,62.73,0,1,0,122.17,0h103.59Q1154.75,385.33,1154.76,376Z"/><path class="cls-4" d="M869.71,490.27H766.12a62.73,62.73,0,1,1-122.17,0H509.9V371.44a62.73,62.73,0,1,1,0-107.41V111.46c-199,0-360.27,161.31-360.27,360.28,0,144,84.5,268.29,206.63,326V993.64H664.39V797.28C780.79,742,862.83,626,869.71,490.27Z"/><path class="cls-5" d="M473,993.92V646.75c0-25.4-17.21-45.44-38.91-45.52s-40.37,14-40.49,39.17,19.09,39.38,43.17,39.51,135.47,1,151.62,1,37-18.53,37.05-39.7-10.59-38.11-38.11-38.11c-34.14,0-41.41,28.85-41.29,44.19s3.18,346.36,3.18,346.36"/></g></g></g></svg>