<svg xmlns="http://www.w3.org/2000/svg" viewBox="0 0 1253.6 1253.6"><defs><style>.cls-1,.cls-5,.cls-6,.cls-8{fill:none;}.cls-2{fill:#8a6849;}.cls-2,.cls-5,.cls-6,.cls-8{stroke:#1d1d1b;}.cls-2,.cls-6,.cls-8{stroke-linecap:round;stroke-width:25px;}.cls-2,.cls-8{stroke-linejoin:round;}.cls-3{fill:#3a3a3a;}.cls-4{fill:#1d1d1b;}.cls-5,.cls-6{stroke-miterlimit:10;}.cls-5{stroke-width:35px;}.cls-7{fill:#f7ef8b;}</style></defs><title>Asset 64100</title><g id="Layer_2" data-name="Layer 2"><g id="Layer_1-2" data-name="Layer 1"><rect class="cls-1" width="1253.6" height="1253.6"/><path class="cls-2" d="M635.56,834.76s-24.56-35-64.88-65.58c-28.79-21.8-66.36-30.62-98.1-29.09-84.4,11.41-105.51,40.49-159.4,85.83-57.32,47.63-103.15,80-133.78,53.47s-13.28-106.22-13.28-106.22c-51.06,3.07-168.51,153.71,12.18,268.6,46.46,24.77,126.71,59.23,248.24,38.3S635.4,948.32,635.4,948.32"/><path class="cls-2" d="M628.56,835.76s24.56-35,64.89-65.58c28.79-21.8,66.36-30.62,98.09-29.09C876,752.5,897.05,781.58,951,826.92c57.32,47.63,103.14,80,133.78,53.47S1098,774.17,1098,774.17c51.06,3.07,168.51,153.71-12.18,268.6-46.47,24.77-126.71,59.23-248.25,38.3S627.72,949.32,627.72,949.32"/><path class="cls-3" d="M301.14,688.13c-55.54,0-111.71-26.87-154.09-73.72-42.79-47.3-67.34-110.22-67.34-172.64,0-33.92,5.23-63.66,15.53-88.41a145.08,145.08,0,0,1,42.83-57.78c36.64-29.63,91.29-44.65,162.43-44.65,96.54,0,164.16,14.81,206.71,45.27a133.72,133.72,0,0,1,46.21,57.36C563.87,377.81,569,406.64,569,441.69c-.26,28.38-7.18,57-20.57,85.05-13,27.16-31.34,52.56-54.63,75.49-47.07,46.35-109.58,77.2-171.51,84.63A177.32,177.32,0,0,1,301.14,688.13Z"/><path class="cls-4" d="M300.5,268.43c92.76,0,157.05,13.74,196.52,42,37.11,26.57,54.41,68.25,54.44,131.19-.25,25.77-6.6,51.88-18.87,77.58-12.08,25.32-29.28,49.06-51.11,70.56-44.36,43.69-103.16,72.75-161.31,79.73a161.57,161.57,0,0,1-19,1.14c-25.59,0-51-6.07-75.56-18C201.74,641,179.08,623.73,160,602.67A247.74,247.74,0,0,1,114.2,529a234.75,234.75,0,0,1-17-87.27c0-31.6,4.78-59.08,14.19-81.68,8.63-20.73,21-37.38,37.68-50.9,33.44-27.05,84.39-40.76,151.42-40.76m0-35c-144.76,0-238.29,60-238.29,208.34,0,139.88,112,263.86,238.93,263.86a195.26,195.26,0,0,0,23.2-1.39c136.17-16.34,261-135,262.12-262.47,0-148.34-88.85-208.34-286-208.34Z"/><path class="cls-3" d="M949.06,688.13A179.45,179.45,0,0,1,928,686.86c-61.93-7.43-124.44-38.28-171.51-84.63-23.29-22.93-41.66-48.33-54.63-75.49-13.39-28.06-20.31-56.67-20.57-85.05,0-35.05,5.09-63.88,15.53-88.13A133.74,133.74,0,0,1,743,296.2c42.55-30.46,110.16-45.27,206.71-45.27,71.14,0,125.79,15,162.42,44.65A145,145,0,0,1,1155,353.36c10.3,24.75,15.53,54.49,15.53,88.41,0,62.42-24.55,125.35-67.34,172.64-42.38,46.85-98.55,73.72-154.08,73.72Z"/><path class="cls-4" d="M949.7,268.43c67,0,118,13.71,151.42,40.76,16.72,13.52,29.05,30.17,37.68,50.9,9.41,22.6,14.19,50.08,14.19,81.68A234.75,234.75,0,0,1,1136,529a247.74,247.74,0,0,1-45.82,73.63c-19.06,21.06-41.73,38.32-65.56,49.93-24.55,12-50,18-75.56,18a161.57,161.57,0,0,1-19-1.14c-58.15-7-116.95-36-161.32-79.73-21.82-21.5-39-45.24-51.1-70.56-12.27-25.7-18.62-51.81-18.87-77.58,0-62.94,17.33-104.62,54.44-131.19,39.47-28.26,103.75-42,196.52-42m0-35c-197.11,0-286,60-286,208.34,1.12,127.51,126,246.13,262.12,262.47a195.26,195.26,0,0,0,23.2,1.39c127,0,238.93-124,238.93-263.86,0-148.34-93.53-208.34-238.29-208.34Z"/><line class="cls-5" x1="436.84" y1="266.94" x2="817.52" y2="266.94"/><path class="cls-5" d="M564,400.41c42-30.52,83.92-30.76,125.62,0"/><path class="cls-4" d="M166.2,395.81a24,24,0,1,0,24,24,24,24,0,0,0-24-24Z"/><path class="cls-6" d="M183.06,500.49q22.29,54.75,75.9,92.73"/><circle class="cls-7" cx="1124.06" cy="316.77" r="69.33"/><path class="cls-4" d="M1124.06,273.18a153.13,153.13,0,0,0,43.59,43.59,153.38,153.38,0,0,0-43.59,43.59,153.54,153.54,0,0,0-43.6-43.59,153.29,153.29,0,0,0,43.6-43.59m0-83.45a127,127,0,0,1-127,127h0a127,127,0,0,1,127,127,127,127,0,0,1,127-127h0a127,127,0,0,1-127-127Z"/><path class="cls-8" d="M1065.69,505.34q-18.21,52.92-73.53,87.88"/></g></g></svg>