<svg xmlns="http://www.w3.org/2000/svg" viewBox="0 0 1253.6 1253.6"><defs><style>.cls-1,.cls-9{fill:none;}.cls-2{fill:#47ae4c;}.cls-3,.cls-6{fill:#fbd493;}.cls-4{fill:#f3e600;stroke:#1d1d1b;}.cls-4,.cls-5,.cls-6,.cls-7,.cls-8{stroke-linecap:round;stroke-linejoin:round;}.cls-4,.cls-5,.cls-6,.cls-7,.cls-8,.cls-9{stroke-width:20px;}.cls-5{fill:#695d51;}.cls-5,.cls-6,.cls-7,.cls-8,.cls-9{stroke:#000;}.cls-7{fill:#ec652e;}.cls-8{fill:#d2ecfc;}.cls-9{stroke-miterlimit:10;}</style></defs><title>Asset 53100</title><g id="Layer_2" data-name="Layer 2"><g id="Layer_1-2" data-name="Layer 1"><rect class="cls-1" width="1253.6" height="1253.6"/><path class="cls-2" d="M17.85,812.28V778.63A58.74,58.74,0,0,1,76.53,720H93.9a58.75,58.75,0,0,1,58.69,58.68v33.65Z"/><path d="M93.9,730a48.74,48.74,0,0,1,48.69,48.68v23.65H27.85V778.63A48.74,48.74,0,0,1,76.53,730H93.9m0-20H76.53A68.68,68.68,0,0,0,7.85,778.63v43.65H162.59V778.63A68.68,68.68,0,0,0,93.9,710Z"/><path class="cls-3" d="M85.22,749.76A39.81,39.81,0,1,1,125,710,39.86,39.86,0,0,1,85.22,749.76Z"/><path d="M85.22,680.14A29.81,29.81,0,1,1,55.41,710a29.85,29.85,0,0,1,29.81-29.81m0-20A49.81,49.81,0,1,0,135,710a49.81,49.81,0,0,0-49.81-49.81Z"/><path class="cls-2" d="M172.59,812.28V778.63A58.74,58.74,0,0,1,231.27,720h17.37a58.74,58.74,0,0,1,58.68,58.68v33.65Z"/><path d="M248.64,730a48.73,48.73,0,0,1,48.68,48.68v23.65H182.59V778.63A48.73,48.73,0,0,1,231.27,730h17.37m0-20H231.27a68.68,68.68,0,0,0-68.68,68.68v43.65H317.32V778.63A68.68,68.68,0,0,0,248.64,710Z"/><circle class="cls-3" cx="239.95" cy="709.95" r="39.81"/><path d="M240,680.14A29.81,29.81,0,1,1,210.15,710,29.84,29.84,0,0,1,240,680.14m0-20A49.81,49.81,0,1,0,289.76,710,49.81,49.81,0,0,0,240,660.14Z"/><path class="cls-2" d="M327.32,812.28V778.63A58.75,58.75,0,0,1,386,720h17.37a58.74,58.74,0,0,1,58.68,58.68v33.65Z"/><path d="M403.38,730a48.74,48.74,0,0,1,48.68,48.68v23.65H337.32V778.63A48.74,48.74,0,0,1,386,730h17.37m0-20H386a68.68,68.68,0,0,0-68.69,68.68v43.65H472.06V778.63A68.68,68.68,0,0,0,403.38,710Z"/><circle class="cls-3" cx="394.69" cy="709.95" r="39.81"/><path d="M394.69,680.14A29.81,29.81,0,1,1,364.88,710a29.84,29.84,0,0,1,29.81-29.81m0-20A49.81,49.81,0,1,0,444.5,710a49.81,49.81,0,0,0-49.81-49.81Z"/><path class="cls-2" d="M482.06,812.28V778.63A58.75,58.75,0,0,1,540.74,720h17.38a58.74,58.74,0,0,1,58.68,58.68v33.65Z"/><path d="M558.12,730a48.74,48.74,0,0,1,48.68,48.68v23.65H492.06V778.63A48.74,48.74,0,0,1,540.74,730h17.38m0-20H540.74a68.68,68.68,0,0,0-68.68,68.68v43.65H626.8V778.63A68.68,68.68,0,0,0,558.12,710Z"/><circle class="cls-3" cx="549.43" cy="709.95" r="39.81"/><path d="M549.43,680.14A29.81,29.81,0,1,1,519.62,710a29.84,29.84,0,0,1,29.81-29.81m0-20A49.81,49.81,0,1,0,599.24,710a49.81,49.81,0,0,0-49.81-49.81Z"/><path class="cls-2" d="M636.8,812.28V778.63A58.74,58.74,0,0,1,695.48,720h17.38a58.75,58.75,0,0,1,58.68,58.68v33.65Z"/><path d="M712.86,730a48.74,48.74,0,0,1,48.68,48.68v23.65H646.8V778.63A48.74,48.74,0,0,1,695.48,730h17.38m0-20H695.48a68.68,68.68,0,0,0-68.68,68.68v43.65H781.54V778.63A68.68,68.68,0,0,0,712.86,710Z"/><circle class="cls-3" cx="704.17" cy="709.95" r="39.81"/><path d="M704.17,680.14A29.81,29.81,0,1,1,674.36,710a29.84,29.84,0,0,1,29.81-29.81m0-20A49.81,49.81,0,1,0,754,710a49.81,49.81,0,0,0-49.81-49.81Z"/><path class="cls-2" d="M791.54,812.28V778.63A58.74,58.74,0,0,1,850.22,720h17.37a58.75,58.75,0,0,1,58.69,58.68v33.65Z"/><path d="M867.59,730a48.74,48.74,0,0,1,48.69,48.68v23.65H801.54V778.63A48.74,48.74,0,0,1,850.22,730h17.37m0-20H850.22a68.68,68.68,0,0,0-68.68,68.68v43.65H936.28V778.63A68.68,68.68,0,0,0,867.59,710Z"/><path class="cls-3" d="M858.91,749.76A39.81,39.81,0,1,1,898.72,710,39.86,39.86,0,0,1,858.91,749.76Z"/><path d="M858.91,680.14A29.81,29.81,0,1,1,829.1,710a29.85,29.85,0,0,1,29.81-29.81m0-20A49.81,49.81,0,1,0,908.72,710a49.81,49.81,0,0,0-49.81-49.81Z"/><path class="cls-2" d="M946.28,812.28V778.63A58.74,58.74,0,0,1,1005,720h17.37A58.74,58.74,0,0,1,1081,778.63v33.65Z"/><path d="M1022.33,730A48.73,48.73,0,0,1,1071,778.63v23.65H956.28V778.63A48.73,48.73,0,0,1,1005,730h17.37m0-20H1005a68.68,68.68,0,0,0-68.68,68.68v43.65H1091V778.63A68.68,68.68,0,0,0,1022.33,710Z"/><path class="cls-3" d="M1013.65,749.76a39.81,39.81,0,1,1,39.8-39.81A39.85,39.85,0,0,1,1013.65,749.76Z"/><path d="M1013.65,680.14A29.81,29.81,0,1,1,983.84,710a29.84,29.84,0,0,1,29.81-29.81m0-20a49.81,49.81,0,1,0,49.8,49.81,49.81,49.81,0,0,0-49.8-49.81Z"/><path class="cls-2" d="M1101,812.28V778.63A58.75,58.75,0,0,1,1159.7,720h17.37a58.74,58.74,0,0,1,58.68,58.68v33.65Z"/><path d="M1177.07,730a48.74,48.74,0,0,1,48.68,48.68v23.65H1111V778.63A48.74,48.74,0,0,1,1159.7,730h17.37m0-20H1159.7A68.68,68.68,0,0,0,1091,778.63v43.65h154.74V778.63A68.68,68.68,0,0,0,1177.07,710Z"/><circle class="cls-3" cx="1168.38" cy="709.95" r="39.81"/><path d="M1168.38,680.14a29.81,29.81,0,1,1-29.8,29.81,29.84,29.84,0,0,1,29.8-29.81m0-20A49.81,49.81,0,1,0,1218.19,710a49.81,49.81,0,0,0-49.81-49.81Z"/><path class="cls-2" d="M17.85,922.85V889.2a58.75,58.75,0,0,1,58.68-58.68H93.9a58.76,58.76,0,0,1,58.69,58.68v33.65Z"/><path d="M93.9,840.52a48.74,48.74,0,0,1,48.69,48.68v23.65H27.85V889.2a48.74,48.74,0,0,1,48.68-48.68H93.9m0-20H76.53A68.68,68.68,0,0,0,7.85,889.2v43.65H162.59V889.2A68.68,68.68,0,0,0,93.9,820.52Z"/><path class="cls-3" d="M85.22,860.33A39.81,39.81,0,1,1,125,820.52,39.86,39.86,0,0,1,85.22,860.33Z"/><path d="M85.22,790.71a29.81,29.81,0,1,1-29.81,29.81,29.85,29.85,0,0,1,29.81-29.81m0-20A49.81,49.81,0,1,0,135,820.52a49.81,49.81,0,0,0-49.81-49.81Z"/><path class="cls-2" d="M172.59,922.85V889.2a58.75,58.75,0,0,1,58.68-58.68h17.37a58.75,58.75,0,0,1,58.68,58.68v33.65Z"/><path d="M248.64,840.52a48.73,48.73,0,0,1,48.68,48.68v23.65H182.59V889.2a48.73,48.73,0,0,1,48.68-48.68h17.37m0-20H231.27a68.68,68.68,0,0,0-68.68,68.68v43.65H317.32V889.2a68.68,68.68,0,0,0-68.68-68.68Z"/><circle class="cls-3" cx="239.95" cy="820.52" r="39.81"/><path d="M240,790.71a29.81,29.81,0,1,1-29.81,29.81A29.84,29.84,0,0,1,240,790.71m0-20a49.81,49.81,0,1,0,49.8,49.81A49.81,49.81,0,0,0,240,770.71Z"/><path class="cls-2" d="M327.32,922.85V889.2A58.76,58.76,0,0,1,386,830.52h17.37a58.75,58.75,0,0,1,58.68,58.68v33.65Z"/><path d="M403.38,840.52a48.74,48.74,0,0,1,48.68,48.68v23.65H337.32V889.2A48.74,48.74,0,0,1,386,840.52h17.37m0-20H386a68.68,68.68,0,0,0-68.69,68.68v43.65H472.06V889.2a68.68,68.68,0,0,0-68.68-68.68Z"/><circle class="cls-3" cx="394.69" cy="820.52" r="39.81"/><path d="M394.69,790.71a29.81,29.81,0,1,1-29.81,29.81,29.85,29.85,0,0,1,29.81-29.81m0-20a49.81,49.81,0,1,0,49.81,49.81,49.81,49.81,0,0,0-49.81-49.81Z"/><path class="cls-2" d="M482.06,922.85V889.2a58.75,58.75,0,0,1,58.68-58.68h17.38A58.75,58.75,0,0,1,616.8,889.2v33.65Z"/><path d="M558.12,840.52A48.74,48.74,0,0,1,606.8,889.2v23.65H492.06V889.2a48.74,48.74,0,0,1,48.68-48.68h17.38m0-20H540.74a68.68,68.68,0,0,0-68.68,68.68v43.65H626.8V889.2a68.68,68.68,0,0,0-68.68-68.68Z"/><circle class="cls-3" cx="549.43" cy="820.52" r="39.81"/><path d="M549.43,790.71a29.81,29.81,0,1,1-29.81,29.81,29.85,29.85,0,0,1,29.81-29.81m0-20a49.81,49.81,0,1,0,49.81,49.81,49.81,49.81,0,0,0-49.81-49.81Z"/><path class="cls-2" d="M636.8,922.85V889.2a58.75,58.75,0,0,1,58.68-58.68h17.38a58.75,58.75,0,0,1,58.68,58.68v33.65Z"/><path d="M712.86,840.52a48.74,48.74,0,0,1,48.68,48.68v23.65H646.8V889.2a48.74,48.74,0,0,1,48.68-48.68h17.38m0-20H695.48A68.68,68.68,0,0,0,626.8,889.2v43.65H781.54V889.2a68.68,68.68,0,0,0-68.68-68.68Z"/><circle class="cls-3" cx="704.17" cy="820.52" r="39.81"/><path d="M704.17,790.71a29.81,29.81,0,1,1-29.81,29.81,29.85,29.85,0,0,1,29.81-29.81m0-20A49.81,49.81,0,1,0,754,820.52a49.81,49.81,0,0,0-49.81-49.81Z"/><path class="cls-2" d="M791.54,922.85V889.2a58.75,58.75,0,0,1,58.68-58.68h17.37a58.76,58.76,0,0,1,58.69,58.68v33.65Z"/><path d="M867.59,840.52a48.74,48.74,0,0,1,48.69,48.68v23.65H801.54V889.2a48.74,48.74,0,0,1,48.68-48.68h17.37m0-20H850.22a68.68,68.68,0,0,0-68.68,68.68v43.65H936.28V889.2a68.68,68.68,0,0,0-68.69-68.68Z"/><path class="cls-3" d="M858.91,860.33a39.81,39.81,0,1,1,39.81-39.81A39.86,39.86,0,0,1,858.91,860.33Z"/><path d="M858.91,790.71a29.81,29.81,0,1,1-29.81,29.81,29.85,29.85,0,0,1,29.81-29.81m0-20a49.81,49.81,0,1,0,49.81,49.81,49.81,49.81,0,0,0-49.81-49.81Z"/><path class="cls-2" d="M946.28,922.85V889.2A58.75,58.75,0,0,1,1005,830.52h17.37A58.75,58.75,0,0,1,1081,889.2v33.65Z"/><path d="M1022.33,840.52A48.73,48.73,0,0,1,1071,889.2v23.65H956.28V889.2A48.73,48.73,0,0,1,1005,840.52h17.37m0-20H1005a68.68,68.68,0,0,0-68.68,68.68v43.65H1091V889.2a68.68,68.68,0,0,0-68.68-68.68Z"/><path class="cls-3" d="M1013.65,860.33a39.81,39.81,0,1,1,39.8-39.81A39.85,39.85,0,0,1,1013.65,860.33Z"/><path d="M1013.65,790.71a29.81,29.81,0,1,1-29.81,29.81,29.84,29.84,0,0,1,29.81-29.81m0-20a49.81,49.81,0,1,0,49.8,49.81,49.81,49.81,0,0,0-49.8-49.81Z"/><path class="cls-2" d="M1101,922.85V889.2a58.76,58.76,0,0,1,58.69-58.68h17.37a58.75,58.75,0,0,1,58.68,58.68v33.65Z"/><path d="M1177.07,840.52a48.74,48.74,0,0,1,48.68,48.68v23.65H1111V889.2a48.74,48.74,0,0,1,48.69-48.68h17.37m0-20H1159.7A68.68,68.68,0,0,0,1091,889.2v43.65h154.74V889.2a68.68,68.68,0,0,0-68.68-68.68Z"/><circle class="cls-3" cx="1168.38" cy="820.52" r="39.81"/><path d="M1168.38,790.71a29.81,29.81,0,1,1-29.8,29.81,29.85,29.85,0,0,1,29.8-29.81m0-20a49.81,49.81,0,1,0,49.81,49.81,49.81,49.81,0,0,0-49.81-49.81Z"/><path class="cls-2" d="M17.85,1028.82V995.18a58.75,58.75,0,0,1,58.68-58.69H93.9a58.76,58.76,0,0,1,58.69,58.69v33.64Z"/><path d="M93.9,946.49a48.74,48.74,0,0,1,48.69,48.69v23.64H27.85V995.18a48.74,48.74,0,0,1,48.68-48.69H93.9m0-20H76.53A68.68,68.68,0,0,0,7.85,995.18v43.64H162.59V995.18A68.69,68.69,0,0,0,93.9,926.49Z"/><path class="cls-3" d="M85.22,966.3A39.81,39.81,0,1,1,125,926.49,39.85,39.85,0,0,1,85.22,966.3Z"/><path d="M85.22,896.69a29.81,29.81,0,1,1-29.81,29.8,29.84,29.84,0,0,1,29.81-29.8m0-20A49.81,49.81,0,1,0,135,926.49a49.81,49.81,0,0,0-49.81-49.8Z"/><path class="cls-2" d="M172.59,1028.82V995.18a58.75,58.75,0,0,1,58.68-58.69h17.37a58.75,58.75,0,0,1,58.68,58.69v33.64Z"/><path d="M248.64,946.49a48.73,48.73,0,0,1,48.68,48.69v23.64H182.59V995.18a48.73,48.73,0,0,1,48.68-48.69h17.37m0-20H231.27a68.68,68.68,0,0,0-68.68,68.69v43.64H317.32V995.18a68.68,68.68,0,0,0-68.68-68.69Z"/><circle class="cls-3" cx="239.95" cy="926.49" r="39.81"/><path d="M240,896.69a29.81,29.81,0,1,1-29.81,29.8A29.84,29.84,0,0,1,240,896.69m0-20a49.81,49.81,0,1,0,49.8,49.8,49.81,49.81,0,0,0-49.8-49.8Z"/><path class="cls-2" d="M327.32,1028.82V995.18A58.76,58.76,0,0,1,386,936.49h17.37a58.75,58.75,0,0,1,58.68,58.69v33.64Z"/><path d="M403.38,946.49a48.74,48.74,0,0,1,48.68,48.69v23.64H337.32V995.18A48.74,48.74,0,0,1,386,946.49h17.37m0-20H386a68.69,68.69,0,0,0-68.69,68.69v43.64H472.06V995.18a68.68,68.68,0,0,0-68.68-68.69Z"/><circle class="cls-3" cx="394.69" cy="926.49" r="39.81"/><path d="M394.69,896.69a29.81,29.81,0,1,1-29.81,29.8,29.84,29.84,0,0,1,29.81-29.8m0-20a49.81,49.81,0,1,0,49.81,49.8,49.81,49.81,0,0,0-49.81-49.8Z"/><path class="cls-2" d="M482.06,1028.82V995.18a58.76,58.76,0,0,1,58.68-58.69h17.38a58.75,58.75,0,0,1,58.68,58.69v33.64Z"/><path d="M558.12,946.49a48.74,48.74,0,0,1,48.68,48.69v23.64H492.06V995.18a48.74,48.74,0,0,1,48.68-48.69h17.38m0-20H540.74a68.68,68.68,0,0,0-68.68,68.69v43.64H626.8V995.18a68.68,68.68,0,0,0-68.68-68.69Z"/><circle class="cls-3" cx="549.43" cy="926.49" r="39.81"/><path d="M549.43,896.69a29.81,29.81,0,1,1-29.81,29.8,29.84,29.84,0,0,1,29.81-29.8m0-20a49.81,49.81,0,1,0,49.81,49.8,49.81,49.81,0,0,0-49.81-49.8Z"/><path class="cls-2" d="M636.8,1028.82V995.18a58.75,58.75,0,0,1,58.68-58.69h17.38a58.76,58.76,0,0,1,58.68,58.69v33.64Z"/><path d="M712.86,946.49a48.74,48.74,0,0,1,48.68,48.69v23.64H646.8V995.18a48.74,48.74,0,0,1,48.68-48.69h17.38m0-20H695.48a68.68,68.68,0,0,0-68.68,68.69v43.64H781.54V995.18a68.68,68.68,0,0,0-68.68-68.69Z"/><circle class="cls-3" cx="704.17" cy="926.49" r="39.81"/><path d="M704.17,896.69a29.81,29.81,0,1,1-29.81,29.8,29.84,29.84,0,0,1,29.81-29.8m0-20A49.81,49.81,0,1,0,754,926.49a49.81,49.81,0,0,0-49.81-49.8Z"/><path class="cls-2" d="M791.54,1028.82V995.18a58.75,58.75,0,0,1,58.68-58.69h17.37a58.76,58.76,0,0,1,58.69,58.69v33.64Z"/><path d="M867.59,946.49a48.74,48.74,0,0,1,48.69,48.69v23.64H801.54V995.18a48.74,48.74,0,0,1,48.68-48.69h17.37m0-20H850.22a68.68,68.68,0,0,0-68.68,68.69v43.64H936.28V995.18a68.69,68.69,0,0,0-68.69-68.69Z"/><path class="cls-3" d="M858.91,966.3a39.81,39.81,0,1,1,39.81-39.81A39.85,39.85,0,0,1,858.91,966.3Z"/><path d="M858.91,896.69a29.81,29.81,0,1,1-29.81,29.8,29.84,29.84,0,0,1,29.81-29.8m0-20a49.81,49.81,0,1,0,49.81,49.8,49.81,49.81,0,0,0-49.81-49.8Z"/><path class="cls-2" d="M946.28,1028.82V995.18A58.75,58.75,0,0,1,1005,936.49h17.37A58.75,58.75,0,0,1,1081,995.18v33.64Z"/><path d="M1022.33,946.49A48.73,48.73,0,0,1,1071,995.18v23.64H956.28V995.18A48.73,48.73,0,0,1,1005,946.49h17.37m0-20H1005a68.68,68.68,0,0,0-68.68,68.69v43.64H1091V995.18a68.68,68.68,0,0,0-68.68-68.69Z"/><path class="cls-3" d="M1013.65,966.3a39.81,39.81,0,1,1,39.8-39.81A39.84,39.84,0,0,1,1013.65,966.3Z"/><path d="M1013.65,896.69a29.81,29.81,0,1,1-29.81,29.8,29.84,29.84,0,0,1,29.81-29.8m0-20a49.81,49.81,0,1,0,49.8,49.8,49.81,49.81,0,0,0-49.8-49.8Z"/><path class="cls-2" d="M1101,1028.82V995.18a58.76,58.76,0,0,1,58.69-58.69h17.37a58.75,58.75,0,0,1,58.68,58.69v33.64Z"/><path d="M1177.07,946.49a48.74,48.74,0,0,1,48.68,48.69v23.64H1111V995.18a48.74,48.74,0,0,1,48.69-48.69h17.37m0-20H1159.7A68.69,68.69,0,0,0,1091,995.18v43.64h154.74V995.18a68.68,68.68,0,0,0-68.68-68.69Z"/><circle class="cls-3" cx="1168.38" cy="926.49" r="39.81"/><path d="M1168.38,896.69a29.81,29.81,0,1,1-29.8,29.8,29.84,29.84,0,0,1,29.8-29.8m0-20a49.81,49.81,0,1,0,49.81,49.8,49.8,49.8,0,0,0-49.81-49.8Z"/><path class="cls-2" d="M17.85,1134.8v-33.65a58.74,58.74,0,0,1,58.68-58.68H93.9a58.75,58.75,0,0,1,58.69,58.68v33.65Z"/><path d="M93.9,1052.47a48.74,48.74,0,0,1,48.69,48.68v23.65H27.85v-23.65a48.74,48.74,0,0,1,48.68-48.68H93.9m0-20H76.53a68.68,68.68,0,0,0-68.68,68.68v43.65H162.59v-43.65a68.68,68.68,0,0,0-68.69-68.68Z"/><path class="cls-3" d="M85.22,1072.28a39.81,39.81,0,1,1,39.8-39.81A39.86,39.86,0,0,1,85.22,1072.28Z"/><path d="M85.22,1002.66a29.81,29.81,0,1,1-29.81,29.81,29.85,29.85,0,0,1,29.81-29.81m0-20A49.81,49.81,0,1,0,135,1032.47a49.81,49.81,0,0,0-49.81-49.81Z"/><path class="cls-2" d="M172.59,1134.8v-33.65a58.74,58.74,0,0,1,58.68-58.68h17.37a58.74,58.74,0,0,1,58.68,58.68v33.65Z"/><path d="M248.64,1052.47a48.73,48.73,0,0,1,48.68,48.68v23.65H182.59v-23.65a48.73,48.73,0,0,1,48.68-48.68h17.37m0-20H231.27a68.68,68.68,0,0,0-68.68,68.68v43.65H317.32v-43.65a68.68,68.68,0,0,0-68.68-68.68Z"/><circle class="cls-3" cx="239.95" cy="1032.47" r="39.81"/><path d="M240,1002.66a29.81,29.81,0,1,1-29.81,29.81A29.84,29.84,0,0,1,240,1002.66m0-20a49.81,49.81,0,1,0,49.8,49.81A49.81,49.81,0,0,0,240,982.66Z"/><path class="cls-2" d="M327.32,1134.8v-33.65A58.75,58.75,0,0,1,386,1042.47h17.37a58.74,58.74,0,0,1,58.68,58.68v33.65Z"/><path d="M403.38,1052.47a48.74,48.74,0,0,1,48.68,48.68v23.65H337.32v-23.65A48.74,48.74,0,0,1,386,1052.47h17.37m0-20H386a68.68,68.68,0,0,0-68.69,68.68v43.65H472.06v-43.65a68.68,68.68,0,0,0-68.68-68.68Z"/><circle class="cls-3" cx="394.69" cy="1032.47" r="39.81"/><path d="M394.69,1002.66a29.81,29.81,0,1,1-29.81,29.81,29.84,29.84,0,0,1,29.81-29.81m0-20a49.81,49.81,0,1,0,49.81,49.81,49.81,49.81,0,0,0-49.81-49.81Z"/><path class="cls-2" d="M482.06,1134.8v-33.65a58.75,58.75,0,0,1,58.68-58.68h17.38a58.74,58.74,0,0,1,58.68,58.68v33.65Z"/><path d="M558.12,1052.47a48.74,48.74,0,0,1,48.68,48.68v23.65H492.06v-23.65a48.74,48.74,0,0,1,48.68-48.68h17.38m0-20H540.74a68.68,68.68,0,0,0-68.68,68.68v43.65H626.8v-43.65a68.68,68.68,0,0,0-68.68-68.68Z"/><circle class="cls-3" cx="549.43" cy="1032.47" r="39.81"/><path d="M549.43,1002.66a29.81,29.81,0,1,1-29.81,29.81,29.84,29.84,0,0,1,29.81-29.81m0-20a49.81,49.81,0,1,0,49.81,49.81,49.81,49.81,0,0,0-49.81-49.81Z"/><path class="cls-2" d="M636.8,1134.8v-33.65a58.74,58.74,0,0,1,58.68-58.68h17.38a58.75,58.75,0,0,1,58.68,58.68v33.65Z"/><path d="M712.86,1052.47a48.74,48.74,0,0,1,48.68,48.68v23.65H646.8v-23.65a48.74,48.74,0,0,1,48.68-48.68h17.38m0-20H695.48a68.68,68.68,0,0,0-68.68,68.68v43.65H781.54v-43.65a68.68,68.68,0,0,0-68.68-68.68Z"/><circle class="cls-3" cx="704.17" cy="1032.47" r="39.81"/><path d="M704.17,1002.66a29.81,29.81,0,1,1-29.81,29.81,29.84,29.84,0,0,1,29.81-29.81m0-20A49.81,49.81,0,1,0,754,1032.47a49.81,49.81,0,0,0-49.81-49.81Z"/><path class="cls-2" d="M791.54,1134.8v-33.65a58.74,58.74,0,0,1,58.68-58.68h17.37a58.75,58.75,0,0,1,58.69,58.68v33.65Z"/><path d="M867.59,1052.47a48.74,48.74,0,0,1,48.69,48.68v23.65H801.54v-23.65a48.74,48.74,0,0,1,48.68-48.68h17.37m0-20H850.22a68.68,68.68,0,0,0-68.68,68.68v43.65H936.28v-43.65a68.68,68.68,0,0,0-68.69-68.68Z"/><path class="cls-3" d="M858.91,1072.28a39.81,39.81,0,1,1,39.81-39.81A39.86,39.86,0,0,1,858.91,1072.28Z"/><path d="M858.91,1002.66a29.81,29.81,0,1,1-29.81,29.81,29.85,29.85,0,0,1,29.81-29.81m0-20a49.81,49.81,0,1,0,49.81,49.81,49.81,49.81,0,0,0-49.81-49.81Z"/><path class="cls-2" d="M946.28,1134.8v-33.65a58.74,58.74,0,0,1,58.68-58.68h17.37a58.74,58.74,0,0,1,58.68,58.68v33.65Z"/><path d="M1022.33,1052.47a48.73,48.73,0,0,1,48.68,48.68v23.65H956.28v-23.65a48.73,48.73,0,0,1,48.68-48.68h17.37m0-20H1005a68.68,68.68,0,0,0-68.68,68.68v43.65H1091v-43.65a68.68,68.68,0,0,0-68.68-68.68Z"/><path class="cls-3" d="M1013.65,1072.28a39.81,39.81,0,1,1,39.8-39.81A39.85,39.85,0,0,1,1013.65,1072.28Z"/><path d="M1013.65,1002.66a29.81,29.81,0,1,1-29.81,29.81,29.84,29.84,0,0,1,29.81-29.81m0-20a49.81,49.81,0,1,0,49.8,49.81,49.81,49.81,0,0,0-49.8-49.81Z"/><path class="cls-2" d="M1101,1134.8v-33.65a58.75,58.75,0,0,1,58.69-58.68h17.37a58.74,58.74,0,0,1,58.68,58.68v33.65Z"/><path d="M1177.07,1052.47a48.74,48.74,0,0,1,48.68,48.68v23.65H1111v-23.65a48.74,48.74,0,0,1,48.69-48.68h17.37m0-20H1159.7a68.68,68.68,0,0,0-68.69,68.68v43.65h154.74v-43.65a68.68,68.68,0,0,0-68.68-68.68Z"/><circle class="cls-3" cx="1168.38" cy="1032.47" r="39.81"/><path d="M1168.38,1002.66a29.81,29.81,0,1,1-29.8,29.81,29.84,29.84,0,0,1,29.8-29.81m0-20a49.81,49.81,0,1,0,49.81,49.81,49.81,49.81,0,0,0-49.81-49.81Z"/><path class="cls-2" d="M17.85,1240.77v-33.65a58.75,58.75,0,0,1,58.68-58.68H93.9a58.76,58.76,0,0,1,58.69,58.68v33.65Z"/><path d="M93.9,1158.44a48.74,48.74,0,0,1,48.69,48.68v23.65H27.85v-23.65a48.74,48.74,0,0,1,48.68-48.68H93.9m0-20H76.53a68.68,68.68,0,0,0-68.68,68.68v43.65H162.59v-43.65a68.68,68.68,0,0,0-68.69-68.68Z"/><path class="cls-3" d="M85.22,1178.25a39.81,39.81,0,1,1,39.8-39.81A39.86,39.86,0,0,1,85.22,1178.25Z"/><path d="M85.22,1108.63a29.81,29.81,0,1,1-29.81,29.81,29.85,29.85,0,0,1,29.81-29.81m0-20A49.81,49.81,0,1,0,135,1138.44a49.81,49.81,0,0,0-49.81-49.81Z"/><path class="cls-2" d="M172.59,1240.77v-33.65a58.75,58.75,0,0,1,58.68-58.68h17.37a58.75,58.75,0,0,1,58.68,58.68v33.65Z"/><path d="M248.64,1158.44a48.73,48.73,0,0,1,48.68,48.68v23.65H182.59v-23.65a48.73,48.73,0,0,1,48.68-48.68h17.37m0-20H231.27a68.68,68.68,0,0,0-68.68,68.68v43.65H317.32v-43.65a68.68,68.68,0,0,0-68.68-68.68Z"/><circle class="cls-3" cx="239.95" cy="1138.44" r="39.81"/><path d="M240,1108.63a29.81,29.81,0,1,1-29.81,29.81A29.84,29.84,0,0,1,240,1108.63m0-20a49.81,49.81,0,1,0,49.8,49.81,49.81,49.81,0,0,0-49.8-49.81Z"/><path class="cls-2" d="M327.32,1240.77v-33.65A58.76,58.76,0,0,1,386,1148.44h17.37a58.75,58.75,0,0,1,58.68,58.68v33.65Z"/><path d="M403.38,1158.44a48.74,48.74,0,0,1,48.68,48.68v23.65H337.32v-23.65A48.74,48.74,0,0,1,386,1158.44h17.37m0-20H386a68.68,68.68,0,0,0-68.69,68.68v43.65H472.06v-43.65a68.68,68.68,0,0,0-68.68-68.68Z"/><circle class="cls-3" cx="394.69" cy="1138.44" r="39.81"/><path d="M394.69,1108.63a29.81,29.81,0,1,1-29.81,29.81,29.84,29.84,0,0,1,29.81-29.81m0-20a49.81,49.81,0,1,0,49.81,49.81,49.81,49.81,0,0,0-49.81-49.81Z"/><path class="cls-2" d="M482.06,1240.77v-33.65a58.75,58.75,0,0,1,58.68-58.68h17.38a58.75,58.75,0,0,1,58.68,58.68v33.65Z"/><path d="M558.12,1158.44a48.74,48.74,0,0,1,48.68,48.68v23.65H492.06v-23.65a48.74,48.74,0,0,1,48.68-48.68h17.38m0-20H540.74a68.68,68.68,0,0,0-68.68,68.68v43.65H626.8v-43.65a68.68,68.68,0,0,0-68.68-68.68Z"/><circle class="cls-3" cx="549.43" cy="1138.44" r="39.81"/><path d="M549.43,1108.63a29.81,29.81,0,1,1-29.81,29.81,29.84,29.84,0,0,1,29.81-29.81m0-20a49.81,49.81,0,1,0,49.81,49.81,49.81,49.81,0,0,0-49.81-49.81Z"/><path class="cls-2" d="M636.8,1240.77v-33.65a58.75,58.75,0,0,1,58.68-58.68h17.38a58.75,58.75,0,0,1,58.68,58.68v33.65Z"/><path d="M712.86,1158.44a48.74,48.74,0,0,1,48.68,48.68v23.65H646.8v-23.65a48.74,48.74,0,0,1,48.68-48.68h17.38m0-20H695.48a68.68,68.68,0,0,0-68.68,68.68v43.65H781.54v-43.65a68.68,68.68,0,0,0-68.68-68.68Z"/><circle class="cls-3" cx="704.17" cy="1138.44" r="39.81"/><path d="M704.17,1108.63a29.81,29.81,0,1,1-29.81,29.81,29.84,29.84,0,0,1,29.81-29.81m0-20A49.81,49.81,0,1,0,754,1138.44a49.81,49.81,0,0,0-49.81-49.81Z"/><path class="cls-2" d="M791.54,1240.77v-33.65a58.75,58.75,0,0,1,58.68-58.68h17.37a58.76,58.76,0,0,1,58.69,58.68v33.65Z"/><path d="M867.59,1158.44a48.74,48.74,0,0,1,48.69,48.68v23.65H801.54v-23.65a48.74,48.74,0,0,1,48.68-48.68h17.37m0-20H850.22a68.68,68.68,0,0,0-68.68,68.68v43.65H936.28v-43.65a68.68,68.68,0,0,0-68.69-68.68Z"/><path class="cls-3" d="M858.91,1178.25a39.81,39.81,0,1,1,39.81-39.81A39.86,39.86,0,0,1,858.91,1178.25Z"/><path d="M858.91,1108.63a29.81,29.81,0,1,1-29.81,29.81,29.85,29.85,0,0,1,29.81-29.81m0-20a49.81,49.81,0,1,0,49.81,49.81,49.81,49.81,0,0,0-49.81-49.81Z"/><path class="cls-2" d="M946.28,1240.77v-33.65a58.75,58.75,0,0,1,58.68-58.68h17.37a58.75,58.75,0,0,1,58.68,58.68v33.65Z"/><path d="M1022.33,1158.44a48.73,48.73,0,0,1,48.68,48.68v23.65H956.28v-23.65a48.73,48.73,0,0,1,48.68-48.68h17.37m0-20H1005a68.68,68.68,0,0,0-68.68,68.68v43.65H1091v-43.65a68.68,68.68,0,0,0-68.68-68.68Z"/><path class="cls-3" d="M1013.65,1178.25a39.81,39.81,0,1,1,39.8-39.81A39.85,39.85,0,0,1,1013.65,1178.25Z"/><path d="M1013.65,1108.63a29.81,29.81,0,1,1-29.81,29.81,29.84,29.84,0,0,1,29.81-29.81m0-20a49.81,49.81,0,1,0,49.8,49.81,49.81,49.81,0,0,0-49.8-49.81Z"/><path class="cls-2" d="M1101,1240.77v-33.65a58.76,58.76,0,0,1,58.69-58.68h17.37a58.75,58.75,0,0,1,58.68,58.68v33.65Z"/><path d="M1177.07,1158.44a48.74,48.74,0,0,1,48.68,48.68v23.65H1111v-23.65a48.74,48.74,0,0,1,48.69-48.68h17.37m0-20H1159.7a68.68,68.68,0,0,0-68.69,68.68v43.65h154.74v-43.65a68.68,68.68,0,0,0-68.68-68.68Z"/><circle class="cls-3" cx="1168.38" cy="1138.44" r="39.81"/><path d="M1168.38,1108.63a29.81,29.81,0,1,1-29.8,29.81,29.84,29.84,0,0,1,29.8-29.81m0-20a49.81,49.81,0,1,0,49.81,49.81,49.81,49.81,0,0,0-49.81-49.81Z"/><path class="cls-4" d="M873.81,156.27h0A63.35,63.35,0,0,0,810.65,93.1h0a63.34,63.34,0,0,0,63.16-63.16h0A63.35,63.35,0,0,0,937,93.1h0A63.36,63.36,0,0,0,873.81,156.27Z"/><rect class="cls-5" x="567.32" y="521.23" width="208.09" height="99.17"/><circle class="cls-6" cx="492.49" cy="187.41" r="62.43"/><path class="cls-7" d="M467.7,255.59c-27.69-.6-39-1.33-39-1.33l-69.61,83.42a24.73,24.73,0,0,0-.31,31.31l55.31,69,29.22-38.52-36.75-43,41.62-37.63.44,300.84,63.09.67,2-175.33h91.64l3.32,68.4,64.42-.66-7.54-97.26a24.72,24.72,0,0,0-22.4-22.71l-82.29-7.54-2.44-80.14L702.35,199.36,668.26,160,547.39,249.83S469.88,255.63,467.7,255.59Z"/><polygon class="cls-8" points="502.05 316.07 535.42 254.01 468.68 254.01 502.05 316.07"/><line class="cls-9" x1="738.81" y1="171.26" x2="799.81" y2="129.54"/><line class="cls-9" x1="844.09" y1="180.9" x2="740.39" y2="259.02"/><line class="cls-9" x1="714.61" y1="277.52" x2="688.64" y2="297.39"/></g></g></svg>