<svg xmlns="http://www.w3.org/2000/svg" viewBox="0 0 1253.6 1253.6"><defs><style>.cls-1{fill:none;}.cls-2{fill:#4e4d4d;}.cls-2,.cls-3,.cls-4,.cls-5,.cls-6{stroke:#000;stroke-linejoin:round;stroke-width:25px;}.cls-3{fill:#009245;}.cls-4{fill:#6ec6d9;}.cls-5{fill:#8c6239;}.cls-6{fill:#603813;}</style></defs><title>Asset 59100</title><g id="Layer_2" data-name="Layer 2"><g id="Layer_1-2" data-name="Layer 1"><g id="дом"><rect class="cls-1" width="1253.6" height="1253.6"/><rect class="cls-2" x="885.52" y="97.8" width="165.03" height="359.21" rx="12"/><path class="cls-3" d="M618.35,157.1h0L142.89,632.57v605h950.93v-605Z"/><rect class="cls-4" x="476.14" y="436.38" width="284.43" height="284.43"/><rect class="cls-5" x="452.03" y="832.69" width="332.64" height="404.84"/><path class="cls-6" d="M1078.59,609,618.35,169.07,175,596c-39.63,38.17-106.7,12-108.58-42.94,0-.87,0-1.74,0-2.62h0a76.78,76.78,0,0,1,61.13-74.93,64,64,0,0,0,31.27-16.88L618.35,16.07l476.37,455.37a64.47,64.47,0,0,0,31.36,16.85,76.8,76.8,0,0,1,61.13,74.94h0c0,.88,0,1.75,0,2.62C1185.29,620.81,1118.34,647,1078.59,609Z"/></g></g></g></svg>