<svg xmlns="http://www.w3.org/2000/svg" viewBox="0 0 1254.57 1253.6"><defs><style>.cls-1{fill:none;}.cls-2,.cls-3{fill:#88b336;}.cls-2,.cls-3,.cls-6,.cls-7,.cls-8{stroke:#1d1d1b;}.cls-2,.cls-8{stroke-linejoin:round;}.cls-2,.cls-3,.cls-6,.cls-7{stroke-width:25px;}.cls-3,.cls-6,.cls-7{stroke-miterlimit:10;}.cls-4{fill:#1d1d1b;}.cls-5{fill:#fac9a4;}.cls-6{fill:#0871b8;}.cls-7{fill:#fff;}.cls-8{fill:#f3e600;stroke-linecap:round;stroke-width:20px;}</style></defs><title>Asset 58100</title><g id="Layer_2" data-name="Layer 2"><g id="Layer_1-2" data-name="Layer 1"><g id="заработок"><rect class="cls-1" x="0.97" width="1253.6" height="1253.6"/><polygon class="cls-2" points="643.56 29.04 806.95 29.04 725.26 170.54 643.56 312.05 561.86 170.54 480.16 29.04 643.56 29.04"/><path class="cls-3" d="M304,667V403.65c0-44.32,47.73-247.52,331.34-247.56s348.57,167,348.92,267.36,1.57,256.09,1.57,256.09l69.63,125.09S828.43,898.12,697.86,912C497.26,933.36,304,867.69,304,867.69Z"/><path class="cls-4" d="M637.07,598.79l-16.27-4.42a115.55,115.55,0,0,1-30.47-13.17,130.79,130.79,0,0,1-26.61-21.91l25.76-31.22q13.54,16.36,30,24.55a79.4,79.4,0,0,0,35.83,8.18q26.7,0,39.87-10.44t13.16-31.69v-.19q0-13.55-6.39-21.44a38.94,38.94,0,0,0-16.55-11.85,151.84,151.84,0,0,0-25.95-7,3.54,3.54,0,0,0-1-.19,3.39,3.39,0,0,1-1-.18l-2-.38c-.69-.12-1.35-.25-2-.38q-25.21-4.69-40.81-10.53t-26.71-21.15q-11.1-15.33-11.1-43.54v-.19q0-27.46,10-45.61t29.81-27.27q19.85-9.12,49.75-9.12a125.29,125.29,0,0,1,26,2.73,129.28,129.28,0,0,1,25.49,8.27,165.48,165.48,0,0,1,25,13.82L717.75,376.3a118.19,118.19,0,0,0-27.18-14,79.58,79.58,0,0,0-26.23-4.61q-24.83,0-37.24,10.25t-12.42,30.75v.19q0,14.1,7.15,22.1a42.17,42.17,0,0,0,18,11.75,272.44,272.44,0,0,0,29.62,7.9l1.51.37c.5.13,1.06.26,1.69.38l1.79.38,1.78.37q22.2,4.89,37.15,11.95t24.92,22.66q10,15.61,10,42.5v.38q0,26.52-10.35,44.1T706.93,590q-20.59,8.75-51.62,8.75Zm2.63-309.57h38.37V332.1H639.7Zm0,294.71h38.37v45.33H639.7Z"/><path class="cls-5" d="M179.73,841c11-16.47,39.46-58.22,73.64-99.56,55.16-66.7,101.46-103.66,130.37-104.07,21.63-.3,62-.46,120-.46,99.15,0,223,.46,261.65.61-.52,19.31-5.94,60.36-39.64,93.28-15.22,14.86-55.77,32.58-162.52,32.58-24.05,0-45.23-.9-59.25-1.5-7.22-.31-12.44-.53-15.64-.53l-1.59,0c-12.11.39-27.21,2.23-36.54,13.1-6,7-8.4,16.36-7,27.73,1,8.48,6.47,28.38,35.05,30l.46,0c2.31.25,8.53.25,38.17.25,91.33,0,325.85-.65,328.2-.66h2.54l2.34-1c2.92-1.25,291.91-124.71,307.82-131,1.26-.49,4.89-1.65,11.37-1.65,16.32,0,38.6,7.17,52.22,27.32,12.18,18,14,46.89,9.47,66.11-2.57,10.95-6.23,15-7.07,15.44-16.43,9-315.84,165.6-339.06,177.75l-503.37,118Z"/><path class="cls-4" d="M503.76,649.39c89.61,0,199.36.38,248.17.56-.41,3.31-1,6.89-1.79,10.67-5.06,24.06-16.22,44.66-33.17,61.22-5.76,5.63-21.37,16.06-61.17,22.71-25.09,4.19-56.25,6.31-92.61,6.31-23.79,0-44.81-.89-58.71-1.49-7.38-.31-12.72-.54-16.18-.54-.76,0-1.42,0-2,0-13.53.43-33,2.72-45.62,17.45-5.79,6.73-12.21,18.68-10,37.36,1.08,9,7.61,38.5,46.22,41,2,.26,4.93.27,13.37.3,6.08,0,15,0,26.51,0,91.35,0,325.87-.65,328.23-.66h5.08l4.67-2c100.85-43.08,294.9-125.88,307.5-130.86a22.78,22.78,0,0,1,6.79-.78c12.5,0,31,5.71,41.86,21.82,6,8.87,9.59,23.06,9.6,37.94,0,13.92-3,23.38-4.83,26.71C1185.52,813.26,911.14,956.81,880.25,973l-494,115.78L195.12,840.48c13.16-19.43,38.46-55.53,68-91.26,24.91-30.11,47.84-54,68.17-71,29.29-24.48,45.52-28.3,52.59-28.4,21.58-.3,61.9-.46,119.85-.46m0-25c-51.08,0-96,.12-120.2.47C302.53,626,164.4,841.55,164.4,841.55l211.88,275.21L889,996.59S1212.38,827.44,1229.69,818s23.87-67.13,2-99.52c-16.45-24.33-43.32-32.82-62.57-32.82a44.74,44.74,0,0,0-16,2.53C1136.86,694.61,845,819.31,845,819.31s-235.79.66-328.16.66c-22.19,0-36.12,0-36.49-.13-1.92-.49-22.36,1.1-24.78-19.15-2.64-21.94,13.27-26.25,31.56-26.84.34,0,.74,0,1.19,0,8.86,0,38.56,2,74.89,2,60.77,0,140.08-5.69,171.25-36.14,50.75-49.56,43.08-114.67,43.08-114.67s-153.88-.66-273.76-.66Z"/><rect class="cls-6" x="153.41" y="771.04" width="155.57" height="461.57" rx="12" transform="translate(-564.11 350.22) rotate(-37.68)"/><circle class="cls-7" cx="325" cy="1123.3" r="35.01"/><path class="cls-8" d="M136.27,600.52h0c0-69.45-56.82-126.27-126.27-126.27h0c69.45,0,126.27-56.82,126.27-126.27h0c0,69.45,56.82,126.27,126.27,126.27h0C193.09,474.25,136.27,531.07,136.27,600.52Z"/><path class="cls-8" d="M1109.7,282.37h0c0-69.45-56.82-126.28-126.27-126.28h0c69.45,0,126.27-56.82,126.27-126.27h0c0,69.45,56.82,126.27,126.27,126.27h0C1166.52,156.09,1109.7,212.92,1109.7,282.37Z"/></g></g></g></svg>