<svg xmlns="http://www.w3.org/2000/svg" viewBox="0 0 2466.66 4372.71"><defs><style>.cls-1{fill:#88c48c;}.cls-13,.cls-14,.cls-16,.cls-2,.cls-3,.cls-4,.cls-5,.cls-7,.cls-8,.cls-9{fill:none;}.cls-2{stroke:#2a4b9b;}.cls-14,.cls-15,.cls-16,.cls-2,.cls-3,.cls-5,.cls-8,.cls-9{stroke-linecap:round;}.cls-11,.cls-13,.cls-14,.cls-15,.cls-16,.cls-2,.cls-3,.cls-4,.cls-5,.cls-7,.cls-9{stroke-linejoin:round;}.cls-16,.cls-2,.cls-3,.cls-4,.cls-5,.cls-7{stroke-width:50px;}.cls-11,.cls-13,.cls-14,.cls-15,.cls-3,.cls-7,.cls-8,.cls-9{stroke:#000;}.cls-4,.cls-5{stroke:#4e4d4d;}.cls-6{fill:#4e4d4d;}.cls-8{stroke-linejoin:bevel;}.cls-8,.cls-9{stroke-width:35px;}.cls-9{fill-rule:evenodd;}.cls-10,.cls-17{font-size:250px;fill:#1d1d1b;}.cls-10{font-family:Calibri-Italic, Calibri;font-style:italic;}.cls-11{fill:#009245;}.cls-11,.cls-13,.cls-14,.cls-15{stroke-width:30px;}.cls-12{fill:#a8dae6;}.cls-15{fill:#e52421;}.cls-16{stroke:#e52421;}.cls-17{font-family:Calibri-Bold, Calibri;font-weight:700;}.cls-18{letter-spacing:-0.01em;}.cls-19{letter-spacing:-0.01em;}</style></defs><title>Asset 65100</title><g id="Layer_2" data-name="Layer 2"><g id="Layer_1-2" data-name="Layer 1"><g id="лого"><rect class="cls-1" width="2466.66" height="4372.71"/><g id="path"><polyline class="cls-2" points="1358.44 819.99 1358.44 1366.8 918.89 1366.5 918.89 1691.56 1634.81 1685.8 1634.89 1467.9 762.74 1467.9 762.74 1977.27 1935.4 1973.73 1935.4 2391.14 1075.15 2394.41 1075.14 1574.12 1428.76 1572.48 1428.76 2152.5 918.89 2154.41 918.89 2836.16 1694.04 2833.09 1694.09 2524.63 1261.02 2526.52 1261.02 1810.86 1784.93 1808.24 1784.76 2255.96 762.63 2260.24 762.63 2939.74 1003.31 2938.8 1003.31 2664.74 1431.06 2662.99 1431.06 3043.99 243.65 3044.01 243.65 3529.59 1297.67 3529.78"/><rect class="cls-3" x="1079.05" y="1971.86" width="178.05" height="185.87" transform="translate(3232.87 896.71) rotate(90)"/><line class="cls-3" x1="1261.02" y1="2393.7" x2="1261.02" y2="2258.58"/><line class="cls-3" x1="1075.29" y1="2394.7" x2="1075.29" y2="2259.58"/><line class="cls-3" x1="918.89" y1="2258.58" x2="1261.02" y2="2258.58"/></g><g id="men"><path class="cls-4" d="M805.9,1018.72C746.54,1079,677.43,1106,596.16,1096.65l-118.82,72.76V1042.52"/><path class="cls-5" d="M339.65,631.2c-78.59,2-162.47-21.36-162.47-21.36v81.62"/><path class="cls-5" d="M267.05,985.07a428.75,428.75,0,0,1-89.36-25.53l-.51-77.62"/><path class="cls-6" d="M177.18,763.2a23.49,23.49,0,1,0,23.49,23.49,23.49,23.49,0,0,0-23.49-23.49Z"/><path class="cls-7" d="M494.88,1099s-172.17,6.89-185.95-6.9-43.25-104.53-43.66-194c-6.13-226.46,123.32-359.74,334.32-359.73C776.45,537,889.89,652.93,888.21,824c-4.05,127.86-68.82,184.3-112.67,222.27"/><line class="cls-3" x1="477.34" y1="1039.97" x2="477.34" y2="1169.41"/><g id="accross"><path d="M784.17,755.1V883.83H757.49V755.1h26.68m15.15-35h-57A19.85,19.85,0,0,0,722.49,740V899a19.84,19.84,0,0,0,19.84,19.84h57A19.85,19.85,0,0,0,819.17,899V740a19.85,19.85,0,0,0-19.85-19.85Z"/><line class="cls-8" x1="680.7" y1="737.74" x2="680.7" y2="901.3"/><path class="cls-9" d="M1141.12,901.42l102.52-81.95-102.52-82-102.52-82v82.26H978.34a14.81,14.81,0,0,0-14.81,14.81V885.84A17.17,17.17,0,0,0,980.69,903h57.91v80.38Z"/></g><text class="cls-10" transform="translate(236.73 1124.38) rotate(90)">ame</text></g><g id="mountain"><path class="cls-11" d="M2065.44,3529.59l-17.85-9.66-279.06-151.16-363.14-196.7v715Z"/><polygon class="cls-12" points="1861.9 3428.15 2048.03 3528.49 1833.56 3646.45 1718.67 3588.24 1847.35 3500.92 1792.96 3458.79 1861.9 3428.15"/><polyline class="cls-13" points="1874.16 3418.19 1781.48 3458.02 1855.01 3497.85 1699.52 3587.47 1834.51 3654.68"/><line class="cls-14" x1="2069.48" y1="3529.59" x2="2284.97" y2="3529.59"/><polygon class="cls-15" points="2247.44 3664.83 2284.97 3529.9 2209.92 3529.9 2247.44 3664.83"/><path class="cls-13" d="M2065.44,3529.59l-17.85-9.66-279.06-151.16-363.14-196.7v715Z"/></g><line class="cls-16" x1="1632.29" y1="1336.95" x2="1464.75" y2="1169.41"/><line class="cls-16" x1="1632.29" y1="1169.41" x2="1464.75" y2="1336.95"/><line class="cls-16" x1="1967.12" y1="2885.18" x2="1799.58" y2="2717.64"/><line class="cls-16" x1="1967.12" y1="2717.64" x2="1799.58" y2="2885.18"/><line class="cls-16" x1="698.24" y1="2202.27" x2="530.7" y2="2034.73"/><line class="cls-16" x1="698.24" y1="2034.73" x2="530.7" y2="2202.27"/><line class="cls-16" x1="2237.02" y1="2232.33" x2="2069.48" y2="2064.79"/><line class="cls-16" x1="2237.02" y1="2064.79" x2="2069.48" y2="2232.33"/><line class="cls-16" x1="527.97" y1="3387.51" x2="360.43" y2="3219.97"/><line class="cls-16" x1="527.97" y1="3219.97" x2="360.43" y2="3387.51"/><text class="cls-17" transform="translate(203.11 3738.93)">moti<tspan class="cls-18" x="484.13" y="0">v</tspan><tspan class="cls-19" x="598.75" y="0">at</tspan><tspan x="719.85" y="0">ion</tspan></text></g></g></g></svg>