<svg xmlns="http://www.w3.org/2000/svg" viewBox="0 0 1429.48 1359.03"><defs><style>.cls-1{fill:#39444d;}.cls-1,.cls-3,.cls-4,.cls-5,.cls-6{stroke:#000;stroke-miterlimit:10;}.cls-1,.cls-3,.cls-4,.cls-5,.cls-7{stroke-width:30px;}.cls-2{fill:#b2e0f9;}.cls-3{fill:#e52421;}.cls-4{fill:#e52528;}.cls-5{fill:none;}.cls-7{fill:#ffd415;stroke:#1d1d1b;stroke-linejoin:round;}.cls-8{font-size:144.94px;fill:#1d1d1b;font-family:Calibri-Bold, Calibri;font-weight:700;}</style></defs><title>Asset 37100</title><g id="Layer_2" data-name="Layer 2"><g id="Layer_1-2" data-name="Layer 1"><g id="vip"><path class="cls-1" d="M1261.63,1344H176.4c-5.88,0-36.76-.7-61.74-25.68A87.18,87.18,0,0,1,89,1256.61V194.29a87.68,87.68,0,0,1,87.42-87.42H1261.63a87.68,87.68,0,0,1,87.42,87.42V1256.61A87.68,87.68,0,0,1,1261.63,1344Z"/><polygon class="cls-2" points="721.29 1343.22 1101.9 115.88 340.69 115.88 721.29 1343.22"/><path class="cls-3" d="M677.05,165.91S857.3,316.83,940.65,316.83s83.63-103.35,34.61-150.92c48-59,48.74-150.91-34.61-150.91S677.05,165.91,677.05,165.91Z"/><path class="cls-4" d="M769.16,165.91S588.9,316.83,505.56,316.83,421.93,213.48,471,165.91C423,106.87,422.21,15,505.56,15S769.16,165.91,769.16,165.91Z"/><circle class="cls-3" cx="719.01" cy="157.14" r="83.74"/><line class="cls-5" x1="337.98" y1="113.9" x2="719.01" y2="1344.03"/><line class="cls-5" x1="1105.47" y1="106.87" x2="719.01" y2="1344.03"/><path class="cls-1" d="M586.72,1343.22,178,739.43c74.31-19.53,130.54-55,173.61-102.12-138.84-.73-250.73-36.15-329.36-114.39,112.56-93.67,228.4-235.14,306.64-409"/><path class="cls-1" d="M842.76,1343.22l408.71-603.79c-74.31-19.53-130.54-55-173.61-102.12,138.84-.73,250.73-36.15,329.36-114.39-112.56-93.67-228.4-235.14-306.64-409"/><circle class="cls-6" cx="719.01" cy="444.03" r="34.47"/><circle class="cls-6" cx="719.01" cy="842.33" r="34.47"/><circle class="cls-6" cx="719.01" cy="643.18" r="34.47"/><path class="cls-7" d="M1153.81,409.25l51.25,103.84a22.24,22.24,0,0,0,16.75,12.17l114.6,16.65c18.25,2.65,25.53,25.08,12.33,38l-82.92,80.83a22.23,22.23,0,0,0-6.4,19.69L1279,794.51A22.25,22.25,0,0,1,1246.71,818l-102.49-53.89a22.3,22.3,0,0,0-20.71,0L1021,818a22.25,22.25,0,0,1-32.28-23.46l19.58-114.13a22.28,22.28,0,0,0-6.4-19.69L919,579.86a22.25,22.25,0,0,1,12.33-38l114.59-16.65a22.22,22.22,0,0,0,16.75-12.17l51.25-103.84A22.24,22.24,0,0,1,1153.81,409.25Z"/><text class="cls-8" transform="translate(1033.12 672.58)">VIP</text></g></g></g></svg>