<svg xmlns="http://www.w3.org/2000/svg" viewBox="0 0 1257.06 1253.6"><defs><style>.cls-1{fill:none;}.cls-2,.cls-3,.cls-4,.cls-5,.cls-6,.cls-7{stroke:#1d1d1b;stroke-miterlimit:10;stroke-width:25px;}.cls-2{stroke-linecap:round;}.cls-3{fill:#facaab;}.cls-4{fill:#349937;}.cls-5{fill:#fff;}.cls-6{fill:#f3e600;}.cls-7{fill:#0871b8;}</style></defs><title>Asset 63100</title><g id="Layer_2" data-name="Layer 2"><g id="Layer_1-2" data-name="Layer 1"><g id="Команда"><rect class="cls-1" x="1.73" width="1253.6" height="1253.6"/><circle class="cls-2" cx="621.2" cy="163.2" r="17.29"/><circle class="cls-2" cx="537.67" cy="170.29" r="17.29"/><circle class="cls-2" cx="458.74" cy="190.78" r="17.29"/><circle class="cls-2" cx="385.55" cy="223.51" r="17.29"/><circle class="cls-2" cx="319.3" cy="267.28" r="17.29"/><circle class="cls-2" cx="261.16" cy="320.92" r="17.29"/><circle class="cls-2" cx="212.31" cy="383.26" r="17.29"/><circle class="cls-2" cx="173.92" cy="453.12" r="17.29"/><circle class="cls-2" cx="147.16" cy="529.33" r="17.29"/><circle class="cls-2" cx="133.22" cy="610.71" r="17.29"/><circle class="cls-2" cx="133.22" cy="695.23" r="17.29"/><circle class="cls-2" cx="147.16" cy="776.6" r="17.29"/><circle class="cls-2" cx="173.92" cy="852.81" r="17.29"/><circle class="cls-2" cx="212.31" cy="922.68" r="17.29"/><circle class="cls-2" cx="261.16" cy="985.02" r="17.29"/><circle class="cls-2" cx="319.3" cy="1038.66" r="17.29"/><circle class="cls-2" cx="385.55" cy="1082.43" r="17.29"/><circle class="cls-2" cx="458.74" cy="1115.15" r="17.29"/><circle class="cls-2" cx="537.67" cy="1135.65" r="17.29"/><circle class="cls-2" cx="621.2" cy="1142.74" r="17.29"/><circle class="cls-2" cx="704.72" cy="1135.65" r="17.29"/><circle class="cls-2" cx="783.66" cy="1115.15" r="17.29"/><circle class="cls-2" cx="856.84" cy="1082.43" r="17.29"/><circle class="cls-2" cx="923.09" cy="1038.66" r="17.29"/><circle class="cls-2" cx="981.23" cy="985.02" r="17.29"/><circle class="cls-2" cx="1030.08" cy="922.68" r="17.29"/><circle class="cls-2" cx="1068.47" cy="852.81" r="17.29"/><circle class="cls-2" cx="1095.23" cy="776.6" r="17.29"/><circle class="cls-2" cx="1109.17" cy="695.23" r="17.29"/><circle class="cls-2" cx="1109.17" cy="610.71" r="17.29"/><circle class="cls-2" cx="1095.23" cy="529.33" r="17.29"/><circle class="cls-2" cx="1068.47" cy="453.12" r="17.29"/><circle class="cls-2" cx="1030.08" cy="383.26" r="17.29"/><circle class="cls-2" cx="981.23" cy="320.92" r="17.29"/><circle class="cls-2" cx="923.09" cy="267.28" r="17.29"/><circle class="cls-2" cx="856.84" cy="223.51" r="17.29"/><circle class="cls-2" cx="783.66" cy="190.78" r="17.29"/><circle class="cls-2" cx="704.72" cy="170.29" r="17.29"/><circle class="cls-2" cx="621.2" cy="163.2" r="17.29"/><path class="cls-3" d="M597.9,859.08s141,142,164.15,164.68,58.74-.09,82.8,23.93,87.46,87.06,87.46,87.06L1156.88,901.4s-44.69-44.31-71.82-71.39,4.42-112.26-22.32-141.2S981.09,607.15,935,561.07s-136.45,22.44-136.45,22.44Z"/><path class="cls-3" d="M681.21,812.89s-219.15-219-232.8-232.81c-16.45-16.83-16.87-36.17,5.95-59s40.89-20.56,57.25-4.21c17.58,16.8,234.57,231,234.57,231"/><path class="cls-3" d="M746.21,747.9S507.82,509.62,493,494.66c-17.92-18.29-19.2-38.51,3.62-61.33s41.79-19.67,59.57-1.88c19.1,18.31,255,251.48,255,251.48"/><path class="cls-3" d="M811.2,682.9S595.78,467.59,582.36,454.06c-16.17-16.54-16.41-35.72,6.4-58.54s40.73-20.74,56.8-4.66C662.85,407.36,901.2,643,901.2,643"/><path class="cls-3" d="M622.19,883.85S459.47,721.24,449.73,711.39C438,699.3,440.41,682.76,463.23,660s38-23.46,49.69-11.77c12.69,11.9,168.27,164.73,168.27,164.73"/><rect class="cls-4" x="969.6" y="797.95" width="147.08" height="436.36" rx="12" transform="translate(1025.85 -440.02) rotate(45.07)"/><circle class="cls-5" cx="940.41" cy="1118.6" r="33.1"/><path class="cls-3" d="M370.72,584.46S228.66,725.49,206,748.61s.09,58.75-23.93,82.81S95,918.87,95,918.87l233.35,224.57s44.31-44.69,71.39-71.81S512,1076.05,541,1049.31s81.65-81.66,127.73-127.73-22.43-136.46-22.43-136.46Z"/><path class="cls-3" d="M416.9,667.78S636,448.62,649.71,435c16.83-16.45,36.17-16.86,59,5.95s20.57,40.9,4.21,57.25c-16.8,17.59-231,234.58-231,234.58"/><path class="cls-3" d="M481.9,732.77S720.17,494.38,735.13,479.53c18.29-17.91,38.51-19.19,61.33,3.63s19.67,41.78,1.88,59.57c-18.31,19.09-251.47,255-251.47,255"/><path class="cls-3" d="M546.89,797.76S762.2,582.34,775.73,568.93c16.54-16.17,35.72-16.42,58.54,6.4s20.74,40.72,4.66,56.79c-16.5,17.3-252.1,255.64-252.1,255.64"/><path class="cls-3" d="M345.94,608.75S508.55,446,518.4,436.29c12.09-11.71,28.63-9.31,51.44,13.5s23.46,38,11.77,49.7c-11.9,12.69-164.73,168.26-164.73,168.26"/><rect class="cls-6" x="140.13" y="811.52" width="147.08" height="436.36" rx="12" transform="translate(1092.14 1607.83) rotate(135.07)"/><circle class="cls-5" cx="111.19" cy="926.98" r="33.1"/><path class="cls-3" d="M831.79,524.43s.73-200.17.38-232.52-41.6-41.48-41.63-75.47S790.27,93,790.27,93l-323.8,6.21s.26,62.94.3,101.26-82.51,76.25-84.07,115.63,0,115.48,0,180.64S495.05,577.4,495.05,577.4Z"/><path class="cls-3" d="M740.22,498.18s.08,309.85,0,329.23C740,851,726.57,864.92,694.3,864.92s-43.46-14.38-43.46-37.5c-.55-24.32-2.5-329.24-2.5-329.24"/><path class="cls-3" d="M648.31,498.18s.08,337.05,0,358.13c-.27,25.6-13.66,40.8-45.92,40.8s-43.46-15.64-43.46-40.8c-.56-26.44-2.5-358.13-2.5-358.13"/><path class="cls-3" d="M556.4,498.17s.07,304.58,0,323.63c-.26,23.13-13.65,36.87-45.92,36.87S467,844.54,467,821.8c-.55-23.89-2.5-359-2.5-359"/><path class="cls-3" d="M832.14,489.74s.08,230,0,243.89c-.27,16.84-13.66,26.83-45.92,26.83s-43.46-10.28-43.46-26.82c-.56-17.39-2.5-235.46-2.5-235.46"/><rect class="cls-7" x="554.48" y="-119.64" width="147.08" height="436.36" rx="12" transform="translate(528.69 726.43) rotate(-89.93)"/><circle class="cls-5" cx="773.11" cy="98.72" r="33.1"/></g></g></g></svg>